<svg width="36" height="30" viewBox="0 0 36 30" fill="none" xmlns="http://www.w3.org/2000/svg">
<path d="M36 3.44476C34.6761 4.02688 33.2539 4.42021 31.7588 4.59799C33.3015 3.682 34.4557 2.24035 35.0059 0.54203C33.5565 1.39631 31.9702 1.99764 30.316 2.31986C29.2036 1.14124 27.7302 0.36004 26.1245 0.0975324C24.5189 -0.164976 22.8708 0.105898 21.4361 0.8681C20.0015 1.6303 18.8606 2.84119 18.1905 4.31276C17.5204 5.78433 17.3587 7.43425 17.7305 9.00637C14.7937 8.86004 11.9207 8.10258 9.29795 6.78315C6.67524 5.46371 4.36141 3.61179 2.50665 1.34756C1.87246 2.43313 1.5078 3.69177 1.5078 5.03222C1.50709 6.23893 1.80655 7.42716 2.37962 8.49148C2.95269 9.5558 3.78164 10.4633 4.79292 11.1335C3.6201 11.0964 2.47315 10.782 1.44755 10.2162V10.3106C1.44743 12.0031 2.0374 13.6435 3.11735 14.9534C4.1973 16.2634 5.70072 17.1622 7.3725 17.4974C6.28452 17.7896 5.14385 17.8327 4.03664 17.6233C4.50832 19.0796 5.4271 20.353 6.66437 21.2654C7.90164 22.1777 9.39545 22.6833 10.9367 22.7114C8.32036 24.7494 5.08922 25.8549 1.76306 25.8501C1.17386 25.8502 0.585165 25.8161 0 25.7478C3.37625 27.9019 7.30645 29.0452 11.3204 29.0407C24.908 29.0407 32.3359 17.8735 32.3359 8.18825C32.3359 7.87359 32.328 7.55579 32.3138 7.24113C33.7586 6.20428 35.0058 4.92035 35.9968 3.44948L36 3.44476Z" fill="#909399"/>
</svg>
