<svg width="39" height="28" viewBox="0 0 39 28" fill="none" xmlns="http://www.w3.org/2000/svg">
<g clip-path="url(#clip0_4_648)">
<path d="M38.1385 4.36722C37.9148 3.52311 37.4784 2.75356 36.8729 2.1352C36.2673 1.51684 35.5137 1.07125 34.687 0.8428C31.6605 0 19.48 0 19.48 0C19.48 0 7.29892 0.025511 4.27246 0.868311C3.44577 1.09678 2.69212 1.54239 2.08655 2.16078C1.48098 2.77916 1.04464 3.54875 0.820964 4.39289C-0.0944699 9.88369 -0.449583 18.2504 0.8461 23.5216C1.0698 24.3657 1.50615 25.1352 2.11172 25.7536C2.71728 26.3719 3.47093 26.8175 4.2976 27.046C7.32406 27.8888 19.5049 27.8888 19.5049 27.8888C19.5049 27.8888 31.6855 27.8888 34.7118 27.046C35.5385 26.8176 36.2922 26.372 36.8978 25.7536C37.5034 25.1353 37.9398 24.3657 38.1635 23.5216C39.129 18.023 39.4265 9.66156 38.1385 4.36738V4.36722Z" fill="#909399"/>
<path d="M15.6032 19.9205L25.7079 13.9443L15.6032 7.9682V19.9205Z" fill="white"/>
</g>
<defs>
<clipPath id="clip0_4_648">
<rect width="39" height="28" fill="white"/>
</clipPath>
</defs>
</svg>
